<svg width="24" height="24" viewBox="0 0 24 24" fill="none" xmlns="http://www.w3.org/2000/svg">
<g clip-path="url(#clip0_152_542)">
<path d="M1.7702 11.2469H18.9641C19.1712 11.2469 19.339 11.0791 19.339 10.872C19.339 10.665 19.1712 10.4972 18.9641 10.4972H1.7702C1.47334 10.4972 1.25861 10.4116 1.11353 10.2354C0.77486 9.82406 0.844469 8.99475 0.90025 8.7074C1.84455 4.35515 5.96636 1.19648 10.7026 1.19648H13.2974C18.0532 1.19648 22.1777 4.37015 23.1071 8.74397C23.2331 9.46954 23.2521 10.3534 22.6455 10.4972H20.1637C19.9566 10.4972 19.7888 10.665 19.7888 10.872C19.7888 11.0791 19.9566 11.2469 20.1637 11.2469H22.6845C22.7079 11.2469 22.7313 11.2447 22.7543 11.2403C23.1697 11.1616 23.4953 10.9231 23.6957 10.5507C23.9403 10.0963 23.9904 9.44283 23.8445 8.60831C23.8438 8.6039 23.8429 8.5995 23.842 8.59519C23.3614 6.32503 22.0499 4.25733 20.1491 2.77293C18.2283 1.27284 15.795 0.446716 13.2974 0.446716H10.7026C8.21303 0.446716 5.7857 1.26811 3.86777 2.75953C1.97041 4.23501 0.656032 6.29231 0.16675 8.55239C0.166282 8.5544 0.165907 8.55633 0.165532 8.55834C0.137547 8.69859 -0.0898903 9.95029 0.532985 10.7098C0.733938 10.9548 1.11175 11.2469 1.7702 11.2469Z" fill="black"/>
<path d="M24 20.353C24 20.1459 23.8322 19.9781 23.6251 19.9781H22.9071C23.1988 19.6176 23.3746 19.1542 23.3746 18.6492V18.3652C23.3746 17.8602 23.1988 17.3969 22.9071 17.0363H22.9997C23.2068 17.0363 23.3746 16.8685 23.3746 16.6614V14.5237C23.3746 14.3166 23.2068 14.1488 22.9997 14.1488H1.00027C0.793172 14.1488 0.625406 14.3166 0.625406 14.5237V16.6614C0.625406 16.8685 0.793172 17.0363 1.00027 17.0363H1.09294C0.801234 17.3969 0.625406 17.8602 0.625406 18.3652V18.6492C0.625406 19.1542 0.801234 19.6176 1.09294 19.9781H0.374859C0.167766 19.9781 0 20.1459 0 20.353V20.8113C0 20.8265 0.00065625 20.8416 0.00154687 20.8565C0.00065625 20.8715 0 20.8865 0 20.9018V21.417C0 21.4322 0.00065625 21.4472 0.00154687 21.4622C0.000609375 21.4772 0 21.4922 0 21.5074V22.1394C0 22.919 0.617484 23.5532 1.37648 23.5532H3.26981C3.47691 23.5532 3.64467 23.3854 3.64467 23.1783C3.64467 22.9712 3.47686 22.8035 3.26981 22.8035H1.37648C1.03087 22.8035 0.749719 22.5056 0.749719 22.1395L0.749672 21.5118L0.750188 21.5035C0.75075 21.4955 0.751219 21.4875 0.751594 21.4794C0.752156 21.4682 0.752156 21.4569 0.751594 21.4457C0.751266 21.4374 0.750703 21.4291 0.750188 21.421L0.749672 20.906L0.750188 20.8979C0.75075 20.8897 0.751219 20.8816 0.751594 20.8733C0.752156 20.862 0.752156 20.8508 0.751594 20.8395C0.751266 20.8314 0.750703 20.8235 0.750188 20.8155L0.749719 20.7279H2.64277H10.9575L11.6942 21.6251C11.712 21.6467 11.7319 21.6661 11.7535 21.6829C11.8184 21.7335 11.8988 21.7619 11.9825 21.7621C11.9831 21.7621 11.9835 21.7621 11.984 21.7621C11.9918 21.7621 11.9996 21.7613 12.0074 21.7608C12.0131 21.7605 12.0188 21.7605 12.0246 21.7599C12.0351 21.7587 12.0453 21.7568 12.0556 21.7548C12.0587 21.7542 12.0619 21.7539 12.065 21.7532C12.0774 21.7505 12.0896 21.747 12.1017 21.743C12.1026 21.7427 12.1035 21.7425 12.1043 21.7423C12.1426 21.7293 12.1785 21.7102 12.2108 21.6856C12.2113 21.6853 12.2117 21.685 12.2122 21.6847C12.2213 21.6778 12.2298 21.6701 12.2383 21.6623C12.24 21.6607 12.2419 21.6594 12.2436 21.6578C12.2535 21.6482 12.263 21.6381 12.2719 21.6274L13.0225 20.7279H21.3572H23.2503V20.8076L23.2485 20.8395C23.2479 20.8508 23.2479 20.8621 23.2485 20.8734L23.2503 21.4133L23.2485 21.4457C23.2479 21.4569 23.2479 21.4682 23.2485 21.4794L23.2503 22.1395C23.2503 22.5056 22.9691 22.8035 22.6236 22.8035H4.46939C4.2623 22.8035 4.09453 22.9713 4.09453 23.1784C4.09453 23.3855 4.26234 23.5532 4.46939 23.5532H22.6236C23.3826 23.5532 24 22.919 24 22.1395V21.5075C24 21.4922 23.9993 21.4772 23.9985 21.4623C23.9994 21.4472 24 21.4322 24 21.417V20.9019C24 20.8866 23.9993 20.8716 23.9985 20.8566C23.9994 20.8416 24 20.8265 24 20.8114V20.353ZM2.64277 19.9781C1.94381 19.9781 1.37513 19.3819 1.37513 18.6492V18.3652C1.37513 17.6325 1.94381 17.0363 2.64277 17.0363H3.82266V17.9206C3.82266 18.1276 3.99047 18.2954 4.19752 18.2954C4.40461 18.2954 4.57237 18.1276 4.57237 17.9206V17.0363H6.16809V17.9206C6.16809 18.1276 6.33586 18.2954 6.54295 18.2954C6.75005 18.2954 6.91781 18.1276 6.91781 17.9206V17.0363H7.9268L8.90691 18.2301L10.342 19.9781H2.64277ZM12.5591 20.1129L11.9863 20.7993L8.96573 17.1202L8.89688 17.0363H15.1263L14.5758 17.6961L12.5591 20.1129ZM22.6249 18.6492C22.6249 19.382 22.0562 19.9781 21.3572 19.9781H13.648L15.9776 17.1863L16.1027 17.0363H16.9572V17.9206C16.9572 18.1276 17.125 18.2954 17.3321 18.2954C17.5391 18.2954 17.7069 18.1276 17.7069 17.9206V17.0363H19.3027V17.9206C19.3027 18.1276 19.4705 18.2954 19.6776 18.2954C19.8847 18.2954 20.0524 18.1276 20.0524 17.9206V17.0363H21.3572C22.0561 17.0363 22.6248 17.6325 22.6248 18.3652V18.6492H22.6249ZM22.6249 16.2866H21.3572H15.9273H8.10408H2.64277H1.37513V14.8985H22.6248V16.2866H22.6249Z" fill="black"/>
<path d="M23.3406 13.1768L21.4993 11.6581C21.499 11.6578 21.4986 11.6576 21.4982 11.6573C21.4907 11.6511 21.4829 11.6456 21.475 11.6401C21.4726 11.6384 21.4703 11.6364 21.4678 11.6348C21.4604 11.63 21.4528 11.6257 21.4452 11.6214C21.4419 11.6195 21.4387 11.6173 21.4354 11.6156C21.4301 11.6128 21.4247 11.6106 21.4193 11.6081C21.4134 11.6053 21.4076 11.6023 21.4016 11.5999C21.4011 11.5997 21.4008 11.5996 21.4004 11.5994C21.3493 11.5789 21.295 11.5706 21.2413 11.5734C21.2033 11.5753 21.1656 11.583 21.1292 11.5966C21.1261 11.5977 21.1229 11.5986 21.1199 11.5998C21.1151 11.6018 21.1103 11.6043 21.1055 11.6065C21.099 11.6094 21.0925 11.6122 21.0861 11.6155C21.0832 11.6171 21.0805 11.6189 21.0776 11.6205C21.0695 11.625 21.0615 11.6296 21.0538 11.6347C21.0515 11.6362 21.0494 11.638 21.0471 11.6395C21.0391 11.6451 21.0311 11.6509 21.0234 11.6571C21.0231 11.6574 21.0227 11.6577 21.0223 11.6579L19.4183 12.9793L17.8151 11.6571C17.8149 11.657 17.8146 11.6567 17.8143 11.6565C17.8055 11.6493 17.7965 11.6428 17.7873 11.6364C17.7862 11.6357 17.7851 11.6348 17.784 11.634C17.7749 11.628 17.7656 11.6225 17.7561 11.6174C17.7546 11.6166 17.7532 11.6156 17.7517 11.6148C17.7437 11.6106 17.7356 11.607 17.7274 11.6034C17.7242 11.602 17.7211 11.6004 17.7179 11.5991C17.7127 11.597 17.7073 11.5954 17.702 11.5935C17.6651 11.5804 17.6269 11.5732 17.5885 11.5721C17.5404 11.5705 17.4921 11.5782 17.446 11.5953C17.4426 11.5966 17.4391 11.5976 17.4357 11.599C17.4314 11.6007 17.4274 11.6028 17.4233 11.6047C17.4161 11.6079 17.4089 11.611 17.4019 11.6147C17.3998 11.6158 17.3977 11.6172 17.3957 11.6184C17.3868 11.6233 17.3781 11.6283 17.3696 11.6339C17.3679 11.6351 17.3663 11.6364 17.3645 11.6376C17.356 11.6435 17.3474 11.6496 17.3392 11.6563C17.3389 11.6566 17.3385 11.6569 17.3383 11.6571L15.7344 12.9784L14.1313 11.6563C14.0596 11.5972 13.9726 11.5694 13.8865 11.5709C13.7998 11.569 13.7122 11.5967 13.6401 11.6561L12.0361 12.9774L10.4329 11.6553C10.4326 11.655 10.4323 11.6548 10.4321 11.6546C10.4236 11.6477 10.4148 11.6413 10.4058 11.6351C10.4044 11.6342 10.4031 11.633 10.4016 11.6321C10.3931 11.6265 10.3843 11.6214 10.3754 11.6164C10.3733 11.6152 10.3714 11.6139 10.3693 11.6128C10.3625 11.6092 10.3554 11.6062 10.3484 11.603C10.344 11.6011 10.3398 11.5988 10.3354 11.5971C10.3326 11.596 10.3298 11.5951 10.327 11.5941C10.2718 11.5732 10.2132 11.5657 10.1558 11.5716C10.1374 11.5736 10.1192 11.577 10.1012 11.5817C10.0967 11.5828 10.0922 11.5837 10.0877 11.585C10.0837 11.5862 10.0797 11.5878 10.0757 11.5892C10.0681 11.5917 10.0605 11.5941 10.0531 11.5971C10.0511 11.5979 10.0492 11.599 10.0472 11.5999C10.0378 11.6038 10.0284 11.6081 10.0193 11.6128C10.0185 11.6133 10.0177 11.6138 10.0168 11.6143C10.0067 11.6198 9.99674 11.6256 9.98713 11.6321C9.98596 11.6328 9.98493 11.6337 9.9838 11.6345C9.97461 11.6407 9.96561 11.6473 9.95689 11.6544C9.95661 11.6546 9.95629 11.6548 9.95601 11.6551L8.35222 12.9763L6.74905 11.6542C6.74872 11.654 6.74835 11.6537 6.74807 11.6534C6.74005 11.6469 6.73176 11.6409 6.72336 11.6351C6.72149 11.6338 6.71966 11.6323 6.71774 11.631C6.70986 11.6258 6.70171 11.6211 6.69351 11.6166C6.69074 11.615 6.68811 11.6132 6.6853 11.6118C6.6794 11.6087 6.6733 11.6061 6.66725 11.6033C6.662 11.6009 6.6568 11.5982 6.65146 11.596C6.6501 11.5955 6.64874 11.5951 6.64743 11.5946C6.59479 11.574 6.53882 11.5659 6.48374 11.5699C6.45018 11.5722 6.41694 11.5792 6.38479 11.5907C6.37968 11.5925 6.37452 11.594 6.36955 11.5961C6.36604 11.5975 6.36266 11.5993 6.35915 11.6008C6.35132 11.6043 6.34344 11.6077 6.3358 11.6117C6.33388 11.6127 6.3321 11.614 6.33022 11.615C6.32118 11.62 6.31222 11.6251 6.30355 11.6309C6.30191 11.632 6.30036 11.6333 6.29872 11.6344C6.29005 11.6404 6.28152 11.6466 6.27327 11.6533C6.27294 11.6535 6.27261 11.6538 6.27229 11.654L4.66841 12.9753L3.06529 11.6532C3.0553 11.6449 3.04499 11.6373 3.03444 11.6303L2.97486 11.5812C2.8364 11.467 2.63647 11.4669 2.49801 11.581L0.655584 13.0986C0.495787 13.2303 0.472959 13.4665 0.604537 13.6263C0.736302 13.7862 0.972505 13.8089 1.13226 13.6774L2.73622 12.3562L4.33916 13.6783C4.34563 13.6836 4.35276 13.6874 4.35946 13.6923L4.42982 13.7503C4.49905 13.8074 4.58366 13.836 4.66827 13.836C4.75279 13.836 4.8374 13.8075 4.90663 13.7505L6.5105 12.4293L8.11368 13.7514C8.18291 13.8086 8.26752 13.8371 8.35213 13.8371C8.43665 13.8371 8.52126 13.8086 8.59049 13.7516L10.1943 12.4304L11.7975 13.7525C11.8668 13.8097 11.9514 13.8382 12.036 13.8382C12.1205 13.8382 12.2051 13.8097 12.2743 13.7527L13.8854 12.4256L15.4957 13.7537C15.565 13.8108 15.6496 13.8394 15.7342 13.8394C15.8187 13.8394 15.9033 13.8109 15.9726 13.7539L17.5764 12.4326L19.1796 13.7547C19.2488 13.8118 19.3334 13.8404 19.4181 13.8404C19.5026 13.8404 19.5872 13.8119 19.6564 13.7549L21.2604 12.4336L22.8633 13.7557C22.9332 13.8133 23.0177 13.8414 23.1017 13.8414C23.2097 13.8414 23.3169 13.7949 23.3911 13.705C23.5231 13.5449 23.5003 13.3085 23.3406 13.1768Z" fill="black"/>
</g>
<defs>
<clipPath id="clip0_152_542">
<rect width="24" height="24" fill="white"/>
</clipPath>
</defs>
</svg>
