<svg width="24" height="24" viewBox="0 0 24 24" fill="none" xmlns="http://www.w3.org/2000/svg">
<g clip-path="url(#clip0_148_24)">
<path d="M21.375 12.375H19.5H11.625V4.5V2.625C11.625 2.418 11.4574 2.25 11.25 2.25C5.46037 2.25 0.75 6.96037 0.75 12.75C0.75 18.5396 5.46037 23.25 11.25 23.25C17.0396 23.25 21.75 18.5396 21.75 12.75C21.75 12.543 21.5824 12.375 21.375 12.375ZM19.1059 13.125C19.1025 13.1996 19.1003 13.2743 19.0946 13.3481C19.0852 13.473 19.074 13.5971 19.0586 13.7201C19.0417 13.8563 19.0204 13.9909 18.9967 14.1248C18.9754 14.2455 18.9529 14.3659 18.9259 14.4844C18.8959 14.6164 18.8614 14.7469 18.825 14.8762C18.7924 14.9921 18.7594 15.108 18.7215 15.2216C18.6791 15.3491 18.6315 15.4744 18.5831 15.5992C18.54 15.7099 18.4969 15.8201 18.4489 15.9285C18.3945 16.0508 18.3353 16.17 18.2749 16.2892C18.222 16.3939 18.1695 16.4989 18.1117 16.6009C18.0461 16.7171 17.9753 16.8296 17.9044 16.9421C17.8421 17.0408 17.7806 17.1397 17.7142 17.235C17.6381 17.3441 17.5568 17.4491 17.4754 17.5541C17.4045 17.6456 17.3347 17.7382 17.2601 17.8267C17.1739 17.9287 17.082 18.0255 16.9909 18.123C16.9121 18.207 16.8352 18.2921 16.7531 18.3727C16.6571 18.4669 16.5555 18.555 16.455 18.6439C16.3695 18.7196 16.2859 18.7969 16.197 18.8689C16.092 18.954 15.9814 19.0324 15.8719 19.1122C15.78 19.179 15.69 19.2484 15.5955 19.3114C15.4815 19.3871 15.3619 19.4554 15.2438 19.5251C15.147 19.5825 15.0521 19.6429 14.9528 19.6961C14.829 19.7621 14.7004 19.8195 14.5729 19.8791C14.4727 19.926 14.3745 19.9766 14.2721 20.0194C14.2275 20.0381 14.1803 20.0516 14.1349 20.0696C13.914 19.515 13.3789 19.125 12.75 19.125C11.9227 19.125 11.25 19.7978 11.25 20.625C8.52825 20.625 6.12525 19.2364 4.71037 17.1307C5.24738 16.9024 5.625 16.3695 5.625 15.75C5.625 14.9227 4.95225 14.25 4.125 14.25C3.92175 14.25 3.72525 14.2916 3.54375 14.3685C3.43425 13.8458 3.375 13.305 3.375 12.75C3.375 12.4823 3.38888 12.2179 3.41513 11.9572C3.42375 11.8706 3.44175 11.787 3.453 11.7011C3.47625 11.5286 3.49763 11.3554 3.53175 11.1866C3.552 11.0865 3.58162 10.9901 3.60562 10.8915C3.64237 10.7408 3.67612 10.5893 3.7215 10.4423C3.753 10.3395 3.7935 10.2405 3.82913 10.1396C3.87788 10.0016 3.924 9.8625 3.98025 9.72787C4.02263 9.62625 4.07288 9.52875 4.11975 9.42938C4.17975 9.30113 4.2375 9.17137 4.30425 9.04725C4.35712 8.94862 4.41675 8.85488 4.47337 8.75925C4.54387 8.64 4.6125 8.51963 4.689 8.4045C4.75163 8.31038 4.82025 8.2215 4.88663 8.13037C4.96688 8.02012 5.04563 7.90912 5.1315 7.80338C5.20312 7.71525 5.28 7.63163 5.35538 7.54688C5.445 7.44562 5.5335 7.34363 5.628 7.24725C5.70788 7.16587 5.79262 7.08938 5.87587 7.01138C5.97375 6.9195 6.07163 6.82725 6.174 6.74025C6.26175 6.666 6.35325 6.597 6.444 6.52688C6.54975 6.44475 6.6555 6.36263 6.76575 6.28613C6.86062 6.22013 6.95925 6.159 7.05713 6.09713C7.17 6.02588 7.28288 5.95463 7.3995 5.889C7.50113 5.83163 7.60575 5.7795 7.71038 5.72662C7.82963 5.66625 7.94925 5.60662 8.07187 5.55225C8.17987 5.50425 8.29012 5.4615 8.40037 5.41838C8.52525 5.36963 8.6505 5.322 8.77838 5.27963C8.892 5.24175 9.0075 5.20875 9.12337 5.17613C9.25313 5.13975 9.38363 5.10488 9.516 5.07487C9.6345 5.04825 9.7545 5.02575 9.87488 5.00437C10.0087 4.98075 10.1438 4.95938 10.2799 4.9425C10.4029 4.92713 10.527 4.91587 10.6519 4.9065C10.7257 4.90087 10.8007 4.89862 10.875 4.89525V12.75C10.875 12.957 11.0426 13.125 11.25 13.125H19.1059ZM13.1332 20.388C13.0125 20.418 12.8921 20.4506 12.7699 20.475C12.6206 20.5042 12.4684 20.5238 12.3161 20.5444C12.2186 20.5579 12.1219 20.5766 12.0236 20.586C12.0161 20.5868 12.0083 20.5864 12.0004 20.5871C12.0214 20.1911 12.3495 19.875 12.75 19.875C13.0504 19.875 13.3095 20.0531 13.4272 20.3119C13.3305 20.34 13.2319 20.3636 13.1332 20.388ZM3.73725 15.1099C3.8535 15.0382 3.98625 15 4.125 15C4.53863 15 4.875 15.3364 4.875 15.75C4.875 16.098 4.6365 16.3913 4.31475 16.4756C4.2225 16.3043 4.14038 16.1269 4.0605 15.9484C4.0395 15.9011 4.01363 15.8557 3.99338 15.8081C3.897 15.5809 3.81225 15.3476 3.73725 15.1099ZM11.25 22.5C5.87362 22.5 1.5 18.126 1.5 12.75C1.5 7.49962 5.67225 3.20513 10.875 3.00713V4.13287C10.8634 4.13325 10.8521 4.13475 10.8409 4.13513C10.7734 4.13813 10.7063 4.14412 10.6391 4.14862C10.5623 4.15387 10.485 4.15875 10.4085 4.16625C10.341 4.173 10.2746 4.18163 10.2075 4.18988C10.1321 4.19888 10.0571 4.2075 9.9825 4.21875C9.91538 4.2285 9.84937 4.24087 9.78263 4.25212C9.70912 4.26487 9.63562 4.27688 9.56287 4.2915C9.4965 4.30463 9.43087 4.32 9.36487 4.33463C9.29325 4.35075 9.22163 4.3665 9.15112 4.38412C9.08512 4.40062 9.0195 4.41938 8.95425 4.43738C8.88488 4.4565 8.8155 4.47562 8.74688 4.49625C8.68163 4.51612 8.61713 4.5375 8.55225 4.55887C8.48475 4.58137 8.41725 4.6035 8.35013 4.6275C8.286 4.65038 8.22262 4.67512 8.15925 4.6995C8.09362 4.725 8.02762 4.75013 7.96275 4.77713C7.89975 4.80338 7.8375 4.83075 7.77487 4.85812C7.71112 4.88625 7.647 4.91475 7.584 4.94438C7.5225 4.97325 7.46175 5.00362 7.401 5.034C7.33875 5.06512 7.27687 5.09663 7.21537 5.12925C7.15537 5.16113 7.09575 5.19412 7.0365 5.2275C6.97612 5.26125 6.9165 5.29538 6.85687 5.33063C6.79838 5.3655 6.74025 5.40112 6.6825 5.4375C6.62437 5.47388 6.56663 5.51062 6.50925 5.5485C6.45225 5.586 6.396 5.62462 6.33975 5.66362C6.2835 5.70262 6.22762 5.74237 6.17212 5.78287C6.11737 5.823 6.06337 5.8635 6.00937 5.90475C5.955 5.94675 5.901 5.98912 5.84737 6.03187C5.7945 6.07462 5.742 6.11775 5.69025 6.16162C5.63812 6.20587 5.58637 6.2505 5.53537 6.29587C5.48438 6.34087 5.43412 6.38662 5.38425 6.43275C5.334 6.47925 5.28487 6.5265 5.23575 6.57413C5.187 6.62138 5.139 6.669 5.09137 6.71775C5.04338 6.7665 4.9965 6.816 4.95 6.86625C4.9035 6.91575 4.85775 6.96562 4.81238 7.01625C4.76662 7.06762 4.72163 7.12013 4.677 7.17263C4.6335 7.22363 4.59038 7.275 4.548 7.32712C4.5045 7.38075 4.46213 7.4355 4.41975 7.49025C4.3785 7.54388 4.33725 7.59712 4.29712 7.6515C4.25625 7.707 4.21688 7.76363 4.17712 7.82025C4.1385 7.87538 4.09987 7.93088 4.06238 7.98675C4.02413 8.0445 3.987 8.10337 3.94987 8.16187C3.91388 8.21887 3.8775 8.27625 3.843 8.334C3.80737 8.39363 3.77325 8.45437 3.73912 8.51475C3.70575 8.57325 3.67237 8.63175 3.6405 8.69137C3.60713 8.75362 3.57563 8.81663 3.54413 8.87963C3.51413 8.93925 3.48338 8.99888 3.4545 9.05925C3.42412 9.12338 3.39525 9.18862 3.36637 9.25387C3.33938 9.315 3.31163 9.37538 3.28575 9.43725C3.258 9.504 3.23212 9.57187 3.20587 9.63975C3.18225 9.70087 3.1575 9.762 3.13538 9.82388C3.11025 9.89363 3.08737 9.96413 3.06412 10.0346C3.0435 10.0965 3.02213 10.1576 3.003 10.2203C2.98088 10.2915 2.96175 10.3643 2.9415 10.4362C2.92387 10.4989 2.9055 10.5611 2.88937 10.6245C2.87063 10.6988 2.8545 10.7741 2.83725 10.8491C2.823 10.9114 2.808 10.9733 2.79525 11.0359C2.7795 11.1143 2.76638 11.1941 2.75288 11.2733C2.74238 11.3336 2.73037 11.394 2.72137 11.4548C2.70975 11.5395 2.70037 11.625 2.68987 11.7098C2.68312 11.7668 2.6745 11.823 2.66887 11.8804C2.6595 11.9745 2.6535 12.0697 2.64713 12.165C2.64375 12.2141 2.6385 12.2632 2.63625 12.3127C2.62875 12.4575 2.625 12.6034 2.625 12.75C2.625 13.5544 2.73825 14.3325 2.94488 15.0716C2.94563 15.075 2.94525 15.0788 2.94637 15.0821C2.95088 15.0986 2.95725 15.1151 2.96213 15.1316C3.00113 15.267 3.04312 15.4009 3.0885 15.5333C3.09938 15.5648 3.1095 15.5966 3.12075 15.6281C3.23175 15.9405 3.35963 16.2446 3.50437 16.5394C3.52913 16.5896 3.55538 16.6391 3.58125 16.6894C3.62925 16.7828 3.67875 16.875 3.73012 16.9661C3.74775 16.9972 3.76313 17.0299 3.78113 17.061C3.7875 17.0722 3.795 17.0809 3.80212 17.091C5.29913 19.6507 8.076 21.375 11.25 21.375C11.3966 21.375 11.5425 21.3713 11.6873 21.3638C11.6944 21.3634 11.7015 21.3626 11.7086 21.3622C11.7086 21.3622 11.7094 21.3622 11.7101 21.3622C11.7124 21.3622 11.7142 21.3619 11.7165 21.3619C11.7566 21.3596 11.7964 21.3555 11.8365 21.3529C11.931 21.3465 12.0255 21.3409 12.1193 21.3315C12.159 21.3274 12.1984 21.3214 12.2381 21.3169C12.2764 21.3124 12.3146 21.3075 12.3525 21.3026C12.4166 21.2944 12.4811 21.2876 12.5445 21.2779C12.6056 21.2685 12.666 21.2565 12.7267 21.246C12.7598 21.2404 12.7927 21.2348 12.8258 21.2288C12.8419 21.2257 12.8584 21.2235 12.8745 21.2201C12.9041 21.2145 12.9341 21.2096 12.9634 21.2036C13.026 21.1909 13.0875 21.1759 13.1498 21.1616C13.2248 21.1448 13.3001 21.1286 13.3748 21.1095C13.4385 21.0934 13.5015 21.0746 13.5645 21.057C13.6361 21.0371 13.7078 21.018 13.7786 20.9963C13.8345 20.979 13.8896 20.9599 13.9451 20.9415C13.9594 20.9366 13.974 20.9333 13.9882 20.9288C13.9912 20.9276 13.9931 20.9258 13.9961 20.9246C14.0558 20.9044 14.1157 20.8853 14.175 20.8639C14.2372 20.8414 14.2987 20.8166 14.3606 20.7926C14.4277 20.7664 14.4953 20.7409 14.5616 20.7131C14.6239 20.6873 14.6846 20.6595 14.7461 20.6321C14.811 20.6033 14.8759 20.5747 14.9396 20.5444C15.0004 20.5155 15.06 20.4848 15.12 20.4548C15.183 20.4229 15.2456 20.3918 15.3079 20.3584C15.3675 20.3265 15.426 20.2931 15.4845 20.2598C15.5449 20.2256 15.6056 20.1915 15.6652 20.1555C15.7234 20.1206 15.7804 20.0843 15.8378 20.0483C15.8963 20.0115 15.9544 19.9748 16.0121 19.9365C16.0684 19.899 16.1239 19.8604 16.1794 19.8214C16.236 19.7816 16.2926 19.7419 16.3485 19.701C16.4029 19.6609 16.4561 19.62 16.5098 19.5788C16.5641 19.5367 16.6181 19.4947 16.6714 19.4516C16.7246 19.4085 16.7768 19.3646 16.8285 19.3204C16.8802 19.2765 16.932 19.2323 16.9826 19.1869C17.0336 19.1415 17.0835 19.0954 17.1334 19.0489C17.1833 19.0024 17.2327 18.9551 17.2815 18.9075C17.3299 18.8599 17.3775 18.8119 17.4251 18.7631C17.4727 18.7144 17.52 18.6649 17.5661 18.615C17.6126 18.5651 17.658 18.5145 17.7034 18.4635C17.7488 18.4125 17.7934 18.3608 17.8376 18.3086C17.8815 18.2569 17.9242 18.2047 17.967 18.1519C18.0101 18.0986 18.0525 18.0446 18.0941 17.9902C18.1354 17.9366 18.1763 17.8823 18.216 17.8275C18.2565 17.772 18.2966 17.7157 18.336 17.6591C18.3746 17.6036 18.4125 17.5478 18.45 17.4915C18.4883 17.4338 18.5254 17.3756 18.5621 17.3168C18.5981 17.2594 18.6338 17.2016 18.6683 17.1435C18.7035 17.0839 18.738 17.0239 18.7721 16.9631C18.8051 16.9043 18.8381 16.845 18.87 16.7854C18.903 16.7235 18.9345 16.6613 18.966 16.5983C18.9964 16.5379 19.0264 16.4775 19.0553 16.4164C19.0852 16.353 19.1137 16.2889 19.1419 16.2247C19.1692 16.1629 19.1966 16.1006 19.2225 16.038C19.2495 15.9724 19.275 15.9064 19.3009 15.84C19.3249 15.7774 19.3493 15.7148 19.3721 15.651C19.3965 15.5831 19.419 15.5145 19.4419 15.4459C19.4629 15.3825 19.4839 15.3191 19.5034 15.255C19.5247 15.1853 19.5439 15.1147 19.5634 15.0443C19.5814 14.9797 19.5994 14.9152 19.6159 14.85C19.6339 14.7787 19.6496 14.7071 19.6658 14.6351C19.6804 14.5691 19.6957 14.5035 19.7089 14.4371C19.7235 14.3644 19.7355 14.2909 19.7482 14.2174C19.7595 14.151 19.7719 14.085 19.7816 14.0182C19.7929 13.9432 19.8011 13.8679 19.8105 13.7921C19.8184 13.7254 19.8274 13.659 19.8341 13.5919C19.8416 13.5154 19.8465 13.4381 19.8517 13.3609C19.8566 13.2938 19.8622 13.227 19.8652 13.1595C19.8656 13.1479 19.8671 13.1366 19.8675 13.1254H20.9936C20.7949 18.3281 16.5004 22.5 11.25 22.5Z" fill="#0E0E0E"/>
<path d="M12.75 0.75C12.5426 0.75 12.375 0.918 12.375 1.125V3V11.25C12.375 11.457 12.5426 11.625 12.75 11.625H15V10.875H13.125V3.39412C13.2019 3.39787 13.2791 3.40013 13.3556 3.40575C13.4726 3.41475 13.5893 3.42488 13.7048 3.43875C13.8461 3.456 13.9856 3.4785 14.1244 3.50287C14.2365 3.52275 14.349 3.54262 14.4596 3.56737C14.598 3.59812 14.7341 3.63525 14.8699 3.67313C14.9288 3.68963 14.9869 3.7065 15.045 3.72412C15.0157 3.8565 15 3.99038 15 4.125C15 5.15887 15.8411 6 16.875 6C17.343 6 17.7881 5.823 18.1294 5.51475C18.3698 5.7405 18.6008 5.97563 18.8115 6.2295C18.8584 6.28575 18.8996 6.34688 18.9446 6.40462C19.0508 6.54 19.1565 6.67575 19.254 6.81787C19.3061 6.89437 19.3522 6.975 19.4017 7.05338C19.4839 7.18313 19.5664 7.31212 19.641 7.44675C19.6901 7.53525 19.7329 7.6275 19.7786 7.71787C19.8443 7.848 19.9102 7.97812 19.9691 8.11237C20.0115 8.20987 20.0482 8.31038 20.0869 8.40975C20.1382 8.5425 20.1896 8.67525 20.2343 8.81137C20.2684 8.916 20.2973 9.02325 20.3273 9.12975C20.3651 9.2655 20.4022 9.40125 20.433 9.54C20.4577 9.65063 20.4776 9.76312 20.4975 9.87562C20.5223 10.0144 20.5444 10.1539 20.5616 10.2952C20.5755 10.4108 20.586 10.5278 20.5946 10.6447C20.6006 10.7212 20.6025 10.7985 20.6063 10.8754H17.25V11.6254H21H22.875C23.0824 11.6254 23.25 11.4574 23.25 11.2504C23.25 5.46037 18.5396 0.75 12.75 0.75ZM15.75 4.125C15.75 4.077 15.7537 4.029 15.7609 3.981C15.8029 3.99863 15.8464 4.01325 15.888 4.03125C16.0222 4.08975 16.1524 4.15575 16.2825 4.22175C16.3729 4.2675 16.4651 4.31025 16.5536 4.359C16.6883 4.43362 16.8176 4.51612 16.947 4.59825C17.0254 4.64775 17.106 4.69388 17.1825 4.746C17.3092 4.83262 17.4296 4.92788 17.5511 5.02163C17.358 5.1675 17.1217 5.25 16.875 5.25C16.2548 5.25 15.75 4.74525 15.75 4.125ZM21.3671 10.875C21.3667 10.8675 21.3656 10.8604 21.3652 10.8529C21.3536 10.6012 21.33 10.3526 21.2974 10.1066C21.2933 10.0763 21.2903 10.0459 21.2858 10.0159C21.2513 9.77588 21.2059 9.53925 21.1519 9.306C21.144 9.27262 21.1369 9.23925 21.1286 9.20625C21.0724 8.97637 21.0068 8.75025 20.9325 8.52787C20.9213 8.49412 20.91 8.46037 20.8984 8.427C20.8215 8.20613 20.7364 7.98938 20.6426 7.77713C20.6288 7.74563 20.6145 7.71488 20.6002 7.68338C20.5031 7.47075 20.3985 7.26225 20.2853 7.05938C20.2703 7.03275 20.2545 7.0065 20.2395 6.97988C20.1221 6.77475 19.9976 6.57413 19.8641 6.37988C19.8503 6.35963 19.8356 6.3405 19.8218 6.32062C19.683 6.12225 19.5371 5.92875 19.3826 5.74312C19.3736 5.73225 19.3642 5.72213 19.3549 5.71125C19.0526 5.35162 18.7211 5.0175 18.3649 4.71112C18.3593 4.7055 18.3566 4.69838 18.3502 4.69313C18.33 4.67588 18.3083 4.66162 18.288 4.64475C18.2775 4.63575 18.2674 4.62637 18.2569 4.61775C18.111 4.49662 17.9603 4.38112 17.8065 4.26938C17.7589 4.23488 17.7113 4.2 17.6629 4.16663C17.6483 4.1565 17.6336 4.14637 17.619 4.13625C17.4638 4.02975 17.3048 3.92813 17.1424 3.83175C17.0951 3.80363 17.0475 3.77588 16.9999 3.7485C16.9796 3.73688 16.9594 3.726 16.9391 3.71475C16.7726 3.62175 16.6031 3.534 16.4299 3.45187C16.389 3.43237 16.3474 3.414 16.3061 3.39525C16.2776 3.3825 16.2495 3.36975 16.221 3.35738C16.0429 3.27863 15.8621 3.20475 15.678 3.138C15.669 3.13462 15.6604 3.1305 15.6514 3.12712C15.648 3.126 15.6446 3.12675 15.6412 3.12563C15.6187 3.11775 15.5959 3.11063 15.5734 3.10275C15.54 3.09037 15.5055 3.07875 15.471 3.0675C15.2494 2.99363 15.024 2.928 14.7945 2.87212C14.7607 2.86387 14.7266 2.85637 14.6925 2.8485C14.4596 2.79488 14.2241 2.7495 13.9845 2.715C13.9537 2.7105 13.9226 2.70713 13.8919 2.70338C13.6466 2.67075 13.3984 2.64713 13.1471 2.6355C13.1396 2.63475 13.1325 2.63325 13.125 2.63287V1.50713C18.2032 1.70025 22.2997 5.79675 22.4929 10.875H21.3671Z" fill="#0E0E0E"/>
<path d="M16.5 10.875H15.75V11.625H16.5V10.875Z" fill="#0E0E0E"/>
<path d="M10.6098 17.0002C11.0126 17.4034 11.5481 17.625 12.1173 17.625C12.6866 17.625 13.2221 17.4034 13.6252 17.0006C14.028 16.5979 14.25 16.0624 14.25 15.4927C14.25 14.9231 14.028 14.3876 13.6252 13.9849C13.4786 13.8386 13.2416 13.8386 13.095 13.9849L10.6098 16.47C10.4632 16.6166 10.4632 16.854 10.6098 17.0002ZM13.3237 14.8166C13.4388 15.0206 13.5 15.252 13.5 15.4927C13.5 15.8617 13.356 16.209 13.095 16.47C12.6641 16.9016 11.9587 16.9901 11.4416 16.6987L13.3237 14.8166Z" fill="#0E0E0E"/>
<path d="M7.00425 10.2458C6.68437 9.92588 6.25912 9.75 5.80687 9.75C5.35462 9.75 4.92938 9.92588 4.60988 10.2458C4.53938 10.3163 4.5 10.4115 4.5 10.5109C4.5 10.6102 4.53938 10.7059 4.60988 10.776L6.474 12.6401C6.54413 12.7106 6.63938 12.75 6.73913 12.75C6.83888 12.75 6.93412 12.7106 7.00425 12.6401C7.66387 11.9801 7.66387 10.9061 7.00425 10.2458ZM6.684 11.7896L5.45963 10.5656C5.79638 10.4332 6.20963 10.5131 6.47363 10.7764C6.747 11.0497 6.8175 11.4506 6.684 11.7896Z" fill="#0E0E0E"/>
<path d="M16.1141 9.75C16.2139 9.75 16.3091 9.71063 16.3793 9.64013C17.0393 8.98013 17.0393 7.90575 16.3793 7.24575C16.0594 6.92588 15.6341 6.75 15.1819 6.75C14.7296 6.75 14.3044 6.92588 13.9849 7.24575C13.9144 7.31625 13.875 7.4115 13.875 7.51087C13.875 7.61025 13.9144 7.70588 13.9849 7.776L15.849 9.64013C15.9191 9.71063 16.0144 9.75 16.1141 9.75ZM15.849 7.776C16.1224 8.04938 16.1925 8.45062 16.0594 8.78962L14.835 7.56562C15.1718 7.43325 15.5854 7.51313 15.849 7.776Z" fill="#0E0E0E"/>
<path d="M9 18H8.25C8.04263 18 7.875 18.168 7.875 18.375C7.875 18.582 8.04263 18.75 8.25 18.75H9C9.20738 18.75 9.375 18.582 9.375 18.375C9.375 18.168 9.20738 18 9 18Z" fill="#0E0E0E"/>
<path d="M9 10.875H9.75C9.95738 10.875 10.125 10.707 10.125 10.5C10.125 10.293 9.95738 10.125 9.75 10.125H9C8.79263 10.125 8.625 10.293 8.625 10.5C8.625 10.707 8.79263 10.875 9 10.875Z" fill="#0E0E0E"/>
<path d="M9.10983 7.76512C9.20583 7.76512 9.30183 7.72837 9.37496 7.65524L9.90521 7.12499C10.0518 6.97837 10.0518 6.74137 9.90521 6.59474C9.75858 6.44812 9.52158 6.44812 9.37496 6.59474L8.84471 7.12499C8.69808 7.27162 8.69808 7.50862 8.84471 7.65524C8.91783 7.72837 9.01383 7.76512 9.10983 7.76512Z" fill="#0E0E0E"/>
<path d="M18.1098 7.45463L17.5796 7.98488C17.4329 8.13151 17.4329 8.36851 17.5796 8.51513C17.6527 8.58826 17.7487 8.62501 17.8447 8.62501C17.9407 8.62501 18.0367 8.58826 18.1098 8.51513L18.6401 7.98488C18.7867 7.83826 18.7867 7.60126 18.6401 7.45463C18.4934 7.30801 18.2564 7.30801 18.1098 7.45463Z" fill="#0E0E0E"/>
<path d="M16.7651 15.6401C16.8382 15.7133 16.9342 15.75 17.0302 15.75C17.1262 15.75 17.2222 15.7133 17.2953 15.6401C17.442 15.4935 17.442 15.2565 17.2953 15.1099L16.7651 14.5796C16.6185 14.433 16.3815 14.433 16.2348 14.5796C16.0882 14.7263 16.0882 14.9633 16.2348 15.1099L16.7651 15.6401Z" fill="#0E0E0E"/>
<path d="M9 15.75C9 15.1298 8.49525 14.625 7.875 14.625C7.25475 14.625 6.75 15.1298 6.75 15.75C6.75 16.3702 7.25475 16.875 7.875 16.875C8.49525 16.875 9 16.3702 9 15.75ZM7.5 15.75C7.5 15.5434 7.668 15.375 7.875 15.375C8.082 15.375 8.25 15.5434 8.25 15.75C8.25 15.9566 8.082 16.125 7.875 16.125C7.668 16.125 7.5 15.9566 7.5 15.75Z" fill="#0E0E0E"/>
<path d="M10.5 13.5H9.75V14.25H10.5V13.5Z" fill="#0E0E0E"/>
<path d="M15.75 17.25H15V18H15.75V17.25Z" fill="#0E0E0E"/>
<path d="M19.125 9.375H18.375V10.125H19.125V9.375Z" fill="#0E0E0E"/>
<path d="M14.625 9.375H13.875V10.125H14.625V9.375Z" fill="#0E0E0E"/>
<path d="M14.625 5.25H13.875V6H14.625V5.25Z" fill="#0E0E0E"/>
<path d="M5.25 12.75H4.5V13.5H5.25V12.75Z" fill="#0E0E0E"/>
<path d="M7.875 8.25H7.125V9H7.875V8.25Z" fill="#0E0E0E"/>
</g>
<defs>
<clipPath id="clip0_148_24">
<rect width="24" height="24" fill="white"/>
</clipPath>
</defs>
</svg>
