<svg width="24" height="24" viewBox="0 0 24 24" fill="none" xmlns="http://www.w3.org/2000/svg">
<g clip-path="url(#clip0_148_512)">
<path d="M6.47999 12.96C8.03039 12.96 9.59999 12.383 9.59999 11.28C9.59999 10.177 8.03039 9.60001 6.47999 9.60001C4.92959 9.60001 3.35999 10.177 3.35999 11.28C3.35999 12.383 4.92959 12.96 6.47999 12.96ZM6.47999 10.56C7.88303 10.56 8.63999 11.0707 8.63999 11.28C8.63999 11.4893 7.88303 12 6.47999 12C5.07695 12 4.31999 11.4893 4.31999 11.28C4.31999 11.0707 5.07695 10.56 6.47999 10.56Z" fill="#0E0E0E"/>
<path d="M2.88002 17.76C2.61506 17.76 2.40002 17.9746 2.40002 18.24V21.12C2.40002 21.3854 2.61506 21.6 2.88002 21.6C3.14498 21.6 3.36002 21.3854 3.36002 21.12V18.24C3.36002 17.9746 3.14498 17.76 2.88002 17.76Z" fill="#0E0E0E"/>
<path d="M2.88002 14.88C2.61506 14.88 2.40002 15.0946 2.40002 15.36V16.7986C2.40002 17.064 2.61506 17.2786 2.88002 17.2786C3.14498 17.2786 3.36002 17.064 3.36002 16.7986V15.36C3.36002 15.0946 3.14498 14.88 2.88002 14.88Z" fill="#0E0E0E"/>
<path d="M14.88 17.76C14.6151 17.76 14.4 17.9746 14.4 18.24V21.12C14.4 21.3854 14.6151 21.6 14.88 21.6C15.145 21.6 15.36 21.3854 15.36 21.12V18.24C15.36 17.9746 15.145 17.76 14.88 17.76Z" fill="#0E0E0E"/>
<path d="M14.88 14.88C14.6151 14.88 14.4 15.0946 14.4 15.36V16.7986C14.4 17.064 14.6151 17.2786 14.88 17.2786C15.145 17.2786 15.36 17.064 15.36 16.7986V15.36C15.36 15.0946 15.145 14.88 14.88 14.88Z" fill="#0E0E0E"/>
<path d="M12.24 5.28001C13.7904 5.28001 15.36 4.70305 15.36 3.60001C15.36 2.49697 13.7904 1.92001 12.24 1.92001C10.6896 1.92001 9.12 2.49697 9.12 3.60001C9.12 4.70305 10.6896 5.28001 12.24 5.28001ZM12.24 2.88001C13.643 2.88001 14.4 3.39073 14.4 3.60001C14.4 3.80929 13.643 4.32001 12.24 4.32001C10.837 4.32001 10.08 3.80929 10.08 3.60001C10.08 3.39073 10.837 2.88001 12.24 2.88001Z" fill="#0E0E0E"/>
<path d="M17.52 12.96C19.0704 12.96 20.64 12.383 20.64 11.28C20.64 10.177 19.0704 9.60001 17.52 9.60001C15.9696 9.60001 14.4 10.177 14.4 11.28C14.4 12.383 15.9696 12.96 17.52 12.96ZM17.52 10.56C18.9231 10.56 19.68 11.0707 19.68 11.28C19.68 11.4893 18.9231 12 17.52 12C16.117 12 15.36 11.4893 15.36 11.28C15.36 11.0707 16.117 10.56 17.52 10.56Z" fill="#0E0E0E"/>
<path d="M23.9933 12.4383C24.0077 12.18 23.977 11.9184 23.8944 11.6669C23.1994 9.53665 21.3566 8.16001 19.2 8.16001H18.72V4.89553L18.7133 4.75825C18.7277 4.50001 18.697 4.23841 18.6144 3.98689C18.0355 2.21233 17.2699 0.480011 14.88 0.480011H9.6C7.21008 0.480011 6.44448 2.21233 5.86512 3.98689C5.80896 4.15825 5.77776 4.33441 5.7672 4.51105L5.76 4.51249V8.16001H3.84C1.45008 8.16001 0.68448 9.89233 0.10512 11.6669C0.04896 11.8383 0.01776 12.0144 0.0072 12.1911L0 12.1925V20.5229C0 22.1755 1.34448 23.52 2.99712 23.52H9.96336C10.7525 23.52 11.4691 23.2109 12.0048 22.7107C12.5549 23.2224 13.2792 23.52 14.0371 23.52H21.0034C22.6555 23.52 24 22.1755 24 20.5229V12.5755L23.9933 12.4383ZM19.2 9.12001C20.9333 9.12001 22.4184 10.2365 22.9819 11.965C23.0362 12.1306 23.0486 12.3 23.028 12.4647L23.0251 12.4834C23.0198 12.5208 23.0088 12.5578 22.9997 12.5947C22.992 12.6264 22.9838 12.6581 22.9733 12.6888C22.9598 12.7287 22.944 12.768 22.9258 12.8064C22.9051 12.8501 22.8806 12.8923 22.8542 12.9341C22.8365 12.9624 22.8187 12.9903 22.7986 13.0171C22.7573 13.0709 22.7122 13.1208 22.6632 13.1645C22.6488 13.1779 22.633 13.1895 22.6176 13.2019C22.5691 13.2413 22.5178 13.2763 22.464 13.3061C22.4496 13.3143 22.4352 13.3224 22.4203 13.3296C22.3608 13.3589 22.2979 13.3819 22.2336 13.3992C22.2206 13.4026 22.2086 13.4079 22.1957 13.4112C22.1179 13.4295 22.0368 13.44 21.9538 13.44H13.0862C13.044 13.44 13.0018 13.4319 12.96 13.4266V12.5755L12.9533 12.4383C12.959 12.3331 12.9571 12.2275 12.9475 12.1224C12.9456 12.1027 12.9418 12.0831 12.9394 12.0634C12.923 11.9299 12.8971 11.797 12.8549 11.6669C12.7522 11.3515 12.6422 11.0376 12.5194 10.7347C12.5314 10.7021 12.539 10.6719 12.5496 10.6397C12.564 10.596 12.5779 10.5533 12.5904 10.5106C12.6106 10.4419 12.6278 10.3757 12.6432 10.3104C12.6518 10.2739 12.661 10.2375 12.6682 10.2019C12.683 10.1309 12.695 10.0637 12.7056 9.99793C12.7094 9.97297 12.7147 9.94753 12.7186 9.92353C12.7315 9.83809 12.7421 9.75745 12.7517 9.68353C12.8242 9.12001 12.8242 9.12001 13.44 9.12001H18.72H19.2ZM6.77808 4.28497C7.39344 2.39809 7.9992 1.44001 9.6 1.44001H14.88C16.4808 1.44001 17.0866 2.39809 17.7019 4.28497C17.7562 4.45057 17.7686 4.62001 17.748 4.78513L17.7451 4.80385C17.7398 4.84081 17.7293 4.87729 17.7202 4.91425C17.712 4.94641 17.7043 4.97857 17.6933 5.00977C17.6798 5.04913 17.664 5.08801 17.6462 5.12641C17.6251 5.17057 17.6011 5.21329 17.5742 5.25505C17.5565 5.28337 17.5392 5.31121 17.519 5.33761C17.4778 5.39137 17.4326 5.44129 17.3837 5.48497C17.3693 5.49841 17.3534 5.50993 17.3381 5.52241C17.2896 5.56177 17.2382 5.59681 17.1845 5.62657C17.1701 5.63473 17.1557 5.64289 17.1408 5.65009C17.0813 5.67937 17.0184 5.70241 16.9541 5.71969C16.9411 5.72305 16.9291 5.72833 16.9162 5.73169C16.8379 5.74945 16.7568 5.76001 16.6738 5.76001H7.80624C7.7232 5.76001 7.64208 5.74945 7.56336 5.73121C7.54992 5.72833 7.5384 5.72305 7.52544 5.71921C7.46112 5.70145 7.39872 5.67889 7.33872 5.64961C7.32384 5.64241 7.30944 5.63425 7.29504 5.62609C7.24128 5.59633 7.18992 5.56129 7.14144 5.52193C7.12608 5.50945 7.11024 5.49745 7.09584 5.48449C7.04688 5.44033 7.00224 5.39041 6.96048 5.33713C6.94032 5.31073 6.92304 5.28289 6.90528 5.25457C6.8784 5.21281 6.85392 5.17009 6.83328 5.12593C6.81552 5.08753 6.79968 5.04865 6.78624 5.00929C6.7752 4.97761 6.76752 4.94593 6.75936 4.91377C6.75024 4.87729 6.73968 4.84033 6.7344 4.80337L6.73152 4.78465C6.71136 4.62001 6.72384 4.45009 6.77808 4.28497ZM6.72 6.40657C6.74496 6.42241 6.7728 6.43441 6.79872 6.44929C6.84 6.47329 6.88176 6.49633 6.92448 6.51745C6.95856 6.53377 6.99312 6.54865 7.02768 6.56305C7.07568 6.58321 7.12464 6.60097 7.17408 6.61729C7.2072 6.62833 7.24032 6.63889 7.2744 6.64801C7.33104 6.66337 7.38912 6.67537 7.4472 6.68545C7.47648 6.69073 7.5048 6.69697 7.53456 6.70129C7.62384 6.71281 7.71408 6.72049 7.80576 6.72049H16.6733C16.765 6.72049 16.8552 6.71281 16.9445 6.70129C16.9742 6.69745 17.0026 6.69073 17.0318 6.68545C17.0904 6.67537 17.148 6.66337 17.2046 6.64801C17.2387 6.63889 17.2718 6.62833 17.305 6.61729C17.3549 6.60097 17.4034 6.58273 17.4514 6.56305C17.4864 6.54865 17.521 6.53377 17.5546 6.51745C17.5973 6.49681 17.639 6.47329 17.6803 6.44929C17.7062 6.43441 17.7341 6.42241 17.759 6.40657V8.16001H13.439C13.2744 8.16001 13.1285 8.17009 12.996 8.18785C12.9514 8.19409 12.9173 8.20561 12.876 8.21329C12.7949 8.22913 12.7128 8.24401 12.6442 8.26657C12.6029 8.28001 12.5702 8.29873 12.5333 8.31505C12.4771 8.33905 12.4195 8.36209 12.372 8.39137C12.3384 8.41201 12.312 8.43697 12.2822 8.46001C12.2424 8.49073 12.2016 8.52145 12.1685 8.55649C12.143 8.58337 12.1224 8.61361 12.1008 8.64241C12.073 8.67937 12.0446 8.71585 12.0216 8.75617C12.0034 8.78881 11.988 8.82337 11.9726 8.85745C11.9539 8.89921 11.9347 8.94097 11.9198 8.98561C11.9074 9.02257 11.8963 9.06145 11.8862 9.09985C11.8738 9.14593 11.8613 9.19201 11.8517 9.24001C11.843 9.28129 11.8354 9.32353 11.8286 9.36625C11.8248 9.39073 11.819 9.41329 11.8152 9.43825C11.748 9.34897 11.6774 9.26353 11.603 9.18145C11.6011 9.17953 11.5997 9.17761 11.5978 9.17617C11.5234 9.09409 11.4446 9.01633 11.3621 8.94241C11.3592 8.93953 11.3558 8.93713 11.3525 8.93425C11.2694 8.86081 11.1821 8.79169 11.0904 8.72689C11.0851 8.72305 11.0798 8.71969 11.0741 8.71585C10.9834 8.65297 10.8878 8.59489 10.788 8.54161C10.7784 8.53633 10.7683 8.53105 10.7587 8.52625C10.6618 8.47633 10.5605 8.43073 10.4544 8.39041C10.4376 8.38417 10.4213 8.37745 10.404 8.37073C10.3032 8.33425 10.1971 8.30257 10.0872 8.27521C10.0618 8.26897 10.0373 8.26129 10.0114 8.25505C9.90432 8.23105 9.79152 8.21281 9.67584 8.19793C9.64416 8.19361 9.6144 8.18785 9.58224 8.18401C9.43536 8.16961 9.28224 8.16001 9.12 8.16001H6.72V6.40657ZM1.01808 11.965C1.63344 10.0781 2.2392 9.12001 3.84 9.12001H5.76H9.12C9.3024 9.12001 9.46848 9.13585 9.6264 9.16081C9.66672 9.16705 9.70512 9.17617 9.744 9.18433C9.86304 9.20881 9.97584 9.24049 10.0819 9.27985C10.117 9.29281 10.1534 9.30481 10.1875 9.31969C10.3008 9.36865 10.4059 9.42817 10.5062 9.49585C10.525 9.50881 10.5456 9.51745 10.5638 9.53089C10.6738 9.61057 10.7746 9.70465 10.8706 9.80737C10.9152 9.85585 10.957 9.91297 11.0002 9.96673C11.0496 10.0287 11.0986 10.0915 11.1451 10.1602C11.1917 10.2293 11.2363 10.3042 11.2805 10.381C11.3203 10.4501 11.3592 10.5211 11.3971 10.5955C11.4394 10.6781 11.4811 10.7631 11.5219 10.8538C11.5642 10.9479 11.6054 11.0467 11.6462 11.149C11.6755 11.2219 11.7053 11.2915 11.7346 11.3703C11.8046 11.5584 11.8738 11.7538 11.9429 11.965C11.975 12.0629 11.9914 12.1627 11.9962 12.2626C11.9971 12.2803 11.9942 12.2981 11.9942 12.3159C11.9942 12.396 11.987 12.4757 11.9702 12.5539C11.9674 12.5674 11.9645 12.5808 11.9611 12.5938C11.9602 12.5986 11.9582 12.6029 11.9573 12.6077C11.9342 12.6931 11.9026 12.7767 11.8594 12.8559C11.8546 12.8645 11.8498 12.8731 11.845 12.8818C11.795 12.9682 11.735 13.0498 11.6621 13.1227L11.5958 13.189C11.5906 13.1938 11.5848 13.1981 11.5795 13.2024C11.531 13.2418 11.4797 13.2768 11.4259 13.3066C11.4115 13.3147 11.3971 13.3229 11.3822 13.3301C11.3227 13.3594 11.2598 13.3824 11.1955 13.3997C11.1826 13.4031 11.1706 13.4083 11.1576 13.4117C11.0779 13.4295 10.9968 13.44 10.9138 13.44H2.04624C1.9632 13.44 1.88208 13.4295 1.80336 13.4112C1.78992 13.4083 1.7784 13.4031 1.76544 13.3992C1.70112 13.3815 1.63872 13.3589 1.57872 13.3296C1.56384 13.3224 1.54944 13.3143 1.53504 13.3061C1.48128 13.2763 1.42992 13.2413 1.38144 13.2019C1.36608 13.1895 1.35024 13.1775 1.33584 13.1645C1.28688 13.1203 1.24224 13.0704 1.20048 13.0171C1.18032 12.9907 1.16304 12.9629 1.14528 12.9346C1.1184 12.8928 1.09392 12.8501 1.07328 12.8059C1.05552 12.7675 1.03968 12.7287 1.02624 12.6893C1.0152 12.6576 1.00752 12.6259 0.99936 12.5938C0.99024 12.5573 0.97968 12.5203 0.9744 12.4834L0.97152 12.4647C0.95136 12.3 0.96384 12.1301 1.01808 11.965ZM9.96288 22.56H2.99712C1.87392 22.56 0.96 21.6466 0.96 20.5234V14.0866C0.98496 14.1024 1.0128 14.1144 1.03872 14.1293C1.08 14.1533 1.12176 14.1763 1.16448 14.1975C1.19856 14.2138 1.23312 14.2287 1.26768 14.2431C1.31568 14.2632 1.36464 14.281 1.41408 14.2973C1.4472 14.3083 1.48032 14.3189 1.5144 14.328C1.57104 14.3434 1.62912 14.3554 1.6872 14.3655C1.71648 14.3707 1.7448 14.377 1.77456 14.3813C1.86432 14.3923 1.95456 14.4 2.04624 14.4H10.9138C11.0054 14.4 11.0957 14.3923 11.185 14.3808C11.2147 14.377 11.243 14.3703 11.2723 14.365C11.3309 14.3549 11.3885 14.3429 11.4451 14.3275C11.4792 14.3184 11.5123 14.3079 11.5454 14.2968C11.5954 14.2805 11.6438 14.2623 11.6918 14.2426C11.7269 14.2282 11.7614 14.2133 11.795 14.197C11.8378 14.1763 11.8795 14.1528 11.9208 14.1288C11.9467 14.1139 11.9746 14.1019 11.9995 14.0861V20.5224V20.5243C11.9995 20.6482 11.9842 20.7677 11.963 20.8853C11.9539 20.9343 11.9405 20.9823 11.928 21.0303C11.9117 21.0936 11.8925 21.1551 11.8704 21.216C11.8474 21.2775 11.8234 21.3384 11.7946 21.3979C11.7773 21.4339 11.7571 21.468 11.7374 21.5026C11.6981 21.5727 11.6587 21.6427 11.6107 21.7095L11.6059 21.7162C11.2354 22.225 10.6392 22.56 9.96288 22.56ZM23.04 20.5229C23.04 21.6461 22.1261 22.56 21.0029 22.56H14.0371C13.487 22.56 12.9763 22.3426 12.5957 21.9543C12.7085 21.7474 12.7949 21.5242 12.8568 21.2919C12.8626 21.2707 12.8678 21.2491 12.8731 21.228C12.8952 21.1378 12.9125 21.0456 12.9259 20.9525C12.9298 20.9256 12.935 20.8992 12.9384 20.8723C12.9514 20.7571 12.96 20.6415 12.96 20.5234V14.3957C13.0018 14.3986 13.044 14.4 13.0862 14.4H21.9538C22.0454 14.4 22.1357 14.3923 22.225 14.3808C22.2547 14.377 22.283 14.3703 22.3123 14.365C22.3709 14.3549 22.4285 14.3429 22.4851 14.3275C22.5192 14.3184 22.5523 14.3079 22.5854 14.2968C22.6354 14.2805 22.6838 14.2623 22.7318 14.2426C22.7669 14.2282 22.8014 14.2133 22.835 14.197C22.8778 14.1763 22.9195 14.1528 22.9608 14.1288C22.9867 14.1139 23.0146 14.1019 23.0395 14.0861L23.04 20.5229Z" fill="#0E0E0E"/>
</g>
<defs>
<clipPath id="clip0_148_512">
<rect width="24" height="24" fill="white"/>
</clipPath>
</defs>
</svg>
